<svg width="111" height="167" viewBox="0 0 111 167" fill="none" xmlns="http://www.w3.org/2000/svg">
<path fill-rule="evenodd" clip-rule="evenodd" d="M0 111.5C0 101.288 2.75825 91.7196 7.5704 83.5C17.2017 99.951 35.0605 111 55.5 111C75.9395 111 93.7983 99.951 103.43 83.5C108.242 91.7196 111 101.288 111 111.5C111 142.152 86.1518 167 55.5 167C24.8482 167 0 142.152 0 111.5Z" fill="#008281"/>
<path d="M55.5 0C24.8482 0 0 24.8482 0 55.5C0 65.7123 2.75825 75.2804 7.5704 83.5C17.2017 67.049 35.0605 56 55.5 56C75.9395 56 93.7983 67.049 103.43 83.5C108.242 75.2804 111 65.7123 111 55.5C111 24.8482 86.1518 0 55.5 0Z" fill="#DC4A00"/>
<path d="M55.5 56C35.0605 56 17.2017 67.049 7.5704 83.5C17.2017 99.951 35.0605 111 55.5 111C75.9395 111 93.7983 99.951 103.43 83.5C93.7983 67.049 75.9395 56 55.5 56Z" fill="#656A3A"/>
</svg>
